<?xml version="1.0" encoding="UTF-8"?>
<svg xmlns="http://www.w3.org/2000/svg" xmlns:xlink="http://www.w3.org/1999/xlink" width="37px" height="37px" viewBox="0 0 37 37" version="1.1">
<g id="surface1">
<path style=" stroke:none;fill-rule:nonzero;fill:rgb(100%,100%,100%);fill-opacity:1;" d="M 35.738281 18.570312 C 35.738281 28.054688 28.054688 35.738281 18.570312 35.738281 C 9.089844 35.738281 1.398438 28.054688 1.398438 18.570312 C 1.398438 9.089844 9.089844 1.398438 18.570312 1.398438 C 28.054688 1.398438 35.738281 9.089844 35.738281 18.570312 Z M 35.738281 18.570312 "/>
<path style="fill-rule:nonzero;fill:rgb(0%,0%,0%);fill-opacity:1;stroke-width:30;stroke-linecap:butt;stroke-linejoin:round;stroke:rgb(5.490196%,8.627451%,50.196078%);stroke-opacity:1;stroke-miterlimit:4;" d="M 171.219642 60.114223 L 227.089574 564.147162 Z M 171.219642 60.114223 " transform="matrix(0.0616667,0,0,0.0616667,0.0703617,0.0703)"/>
<path style="fill-rule:nonzero;fill:rgb(5.490196%,8.627451%,50.196078%);fill-opacity:1;stroke-width:6;stroke-linecap:butt;stroke-linejoin:miter;stroke:rgb(100%,100%,100%);stroke-opacity:1;stroke-miterlimit:4;" d="M 142.081128 142.715574 C 142.081128 142.715574 194.467108 89.379426 337.689236 88.049189 C 482.051568 86.718953 517.334507 201.816081 514.990757 276.309324 C 512.583662 349.59902 458.360689 370.059324 426.308324 378.357466 C 394.002581 386.655608 283.466264 381.841419 229.560014 417.187703 C 172.486534 454.624358 213.787209 576.309324 213.787209 576.309324 C 213.787209 576.309324 160.641095 465.899696 188.259338 397.740912 C 215.434169 330.722331 316.405453 360.050878 308.487378 241.08973 C 300.505959 120.925034 142.081128 142.715574 142.081128 142.715574 Z M 142.081128 142.715574 " transform="matrix(0.0616667,0,0,0.0616667,0.0703617,0.0703)"/>
<path style=" stroke:none;fill-rule:nonzero;fill:rgb(100%,100%,100%);fill-opacity:1;" d="M 26.210938 17.410156 L 24.457031 16.109375 L 22.398438 16.816406 L 23.089844 14.75 L 21.785156 13.007812 L 23.964844 13.027344 L 25.21875 11.246094 L 25.871094 13.324219 L 27.953125 13.96875 L 26.175781 15.230469 L 26.210938 17.410156 "/>
<path style="fill:none;stroke-width:30.0712;stroke-linecap:butt;stroke-linejoin:miter;stroke:rgb(86.666667%,5.490196%,14.117647%);stroke-opacity:1;stroke-miterlimit:4;" d="M 582.579439 298.86 C 582.579439 455.574527 455.573527 582.580439 298.859 582.580439 C 142.144473 582.580439 15.138561 455.574527 15.138561 298.86 C 15.138561 142.145473 142.144473 15.139561 298.859 15.139561 C 455.573527 15.139561 582.579439 142.145473 582.579439 298.86 Z M 582.579439 298.86 " transform="matrix(0.0616667,0,0,0.0616667,0.0703617,0.0703)"/>
</g>
</svg>
